<?xml version="1.0" encoding="UTF-8"?><svg id="Calque_1" xmlns="http://www.w3.org/2000/svg" viewBox="0 0 252.07 140.53"><defs><style>.cls-1{fill:#fff;stroke:#fff;stroke-width:3.31px;}.cls-2{fill:#e1000f;stroke-width:0px;}</style></defs><path class="cls-1" d="M126.03,3.06C58.23,3.06,3.07,33.22,3.07,70.3s55.16,67.18,122.96,67.18,122.97-30.14,122.97-67.18c0-37.08-55.17-67.24-122.97-67.24Z"/><path class="cls-2" d="M126.03,0c69.58,0,126.03,31.47,126.03,70.27s-56.45,70.27-126.02,70.27S0,109.06,0,70.26,56.47,0,126.03,0ZM126.03,6.33C59.98,6.33,6.38,35.02,6.38,70.27s53.61,63.88,119.66,63.88,119.66-28.63,119.66-63.88S192.07,6.33,126.03,6.33ZM103.89,77.01h-24.8c.27,6.11,3.7,8.95,8.83,8.95,3.82,0,6.43-2.15,7.1-4.32h8.13c-2.09,7.39-8.12,10.81-15.56,10.81-10.57,0-17.13-7.26-17.13-17.65s6.94-17.71,17.13-17.71c11.42,0,16.94,9.6,16.29,19.92ZM87.34,63.42c-5.14,0-7.79,3.44-8.21,7.83h16.11c-.63-4.69-2.59-7.83-7.91-7.83ZM211.29,77.01h-24.79c.27,6.11,3.7,8.95,8.83,8.95,3.82,0,6.43-2.15,7.1-4.32h8.13c-2.09,7.39-8.12,10.81-15.56,10.81-10.58,0-17.13-7.26-17.13-17.65s6.94-17.71,17.13-17.71c11.42,0,16.94,9.6,16.29,19.92ZM194.74,63.42c-5.14,0-7.79,3.44-8.21,7.83h16.11c-.62-4.69-2.59-7.83-7.9-7.83ZM27.07,91.54h9.21v-19.98h19.88v19.98h9.21v-46.42h-9.21v19.01h-19.88v-19.01h-9.21v46.42ZM108.98,91.54h8.65v-18.14c0-6.82,2.41-9.6,7.4-9.6,4.28,0,6.21,2.73,6.21,8.24v19.5h8.65v-20.63c0-8.31-2.47-13.82-12.27-13.82-3.89,0-7.92,1.81-10.26,5.58h-.19v-4.67h-8.19v33.54h0ZM147.28,91.54h8.65v-18.16l12.78,18.16h10.76l-14.09-18.81,12.49-14.73h-10.34l-11.61,14.47v-27.34h-8.65v46.42h0ZM216.38,91.54h8.65v-46.42h-8.65v46.42Z"/></svg>